<?xml version="1.0" encoding="utf-8"?>
<!-- Generator: Adobe Illustrator 19.1.1, SVG Export Plug-In . SVG Version: 6.00 Build 0)  -->
<svg version="1.1" id="Layer_1" xmlns="http://www.w3.org/2000/svg" xmlns:xlink="http://www.w3.org/1999/xlink" x="0px" y="0px"
	 viewBox="0 0 168 168" style="enable-background:new 0 0 168 168;" xml:space="preserve">
<style type="text/css">
	.st0{fill:url(#SVGID_1_);}
	.st1{fill:none;stroke:#FFFFFF;stroke-width:3;stroke-miterlimit:10;}
	.st2{fill:none;}
	.st3{fill:#FFFFFF;}
</style>
<linearGradient id="SVGID_1_" gradientUnits="userSpaceOnUse" x1="84" y1="1.12" x2="84" y2="169.12">
	<stop  offset="0" style="stop-color:#E1AED0"/>
	<stop  offset="0.5056" style="stop-color:#C38DBC"/>
	<stop  offset="1" style="stop-color:#D661A0"/>
</linearGradient>
<circle class="st0" cx="84" cy="84" r="84"/>
<path class="st1" d="M95,65.5c-5.2-6.1-12.9-9.9-21.5-9.9C57.7,55.6,45,68.3,45,84s12.7,28.4,28.4,28.4c8.6,0,16.3-3.8,21.5-9.9
	L77,84C77,84,95,65.5,95,65.5z M80.5,62.3c2.2,0,4,1.8,4,4c0,2.2-1.8,4-4,4s-4-1.8-4-4C76.5,64.1,78.3,62.3,80.5,62.3z"/>
<g>
	<circle class="st2" cx="84.5" cy="84.5" r="55.5"/>
	<path class="st3" d="M47.5,42.5l-1,1.1c-0.1,0.1-0.2,0.2-0.4,0.2s-0.3,0-0.4,0l-3.5-1.3L38,47.3l1.7,3.3c0.1,0.1,0.1,0.2,0.1,0.4
		c0,0.1-0.1,0.3-0.2,0.4l-1,1.1l-6.9-13.8l1.3-1.5L47.5,42.5z M40.9,41.9L35,39.7c-0.2-0.1-0.4-0.1-0.6-0.2s-0.4-0.2-0.7-0.3
		c0.3,0.5,0.5,0.9,0.7,1.2l2.8,5.6L40.9,41.9z"/>
	<path class="st3" d="M44.6,27.1c0.7-0.5,1.5-0.9,2.1-1.1c0.7-0.2,1.3-0.3,1.9-0.2s1.1,0.3,1.6,0.6s0.9,0.8,1.3,1.3
		c0.4,0.5,0.6,1.1,0.8,1.7c0.1,0.6,0.1,1.2,0,1.8s-0.4,1.2-0.8,1.7c-0.4,0.6-1,1.1-1.7,1.6l-1.9,1.3l3.1,4.4l-1.6,1.1l-8.2-11.8
		L44.6,27.1z M48.9,33.2c0.5-0.3,0.8-0.7,1.1-1c0.3-0.4,0.4-0.7,0.5-1.1s0.1-0.8,0-1.1s-0.3-0.8-0.5-1.1c-0.5-0.7-1.2-1.2-1.9-1.3
		c-0.8-0.1-1.6,0.2-2.5,0.8l-1.9,1.3l3.4,4.8L48.9,33.2z"/>
	<path class="st3" d="M58.2,19.7c0.8-0.3,1.6-0.5,2.3-0.6c0.7-0.1,1.3,0,1.9,0.2c0.6,0.2,1,0.5,1.4,0.9c0.4,0.4,0.7,0.9,1,1.6
		c0.3,0.6,0.4,1.2,0.4,1.8s-0.1,1.2-0.4,1.7c-0.3,0.5-0.7,1-1.2,1.5c-0.5,0.5-1.2,0.8-2,1.2l-2.1,0.9l2,5l-1.8,0.7l-5.4-13.3
		L58.2,19.7z M61,26.6c0.5-0.2,0.9-0.5,1.3-0.8c0.3-0.3,0.6-0.6,0.8-1c0.2-0.4,0.3-0.7,0.2-1.1c0-0.4-0.1-0.8-0.3-1.2
		c-0.3-0.8-0.9-1.4-1.6-1.7c-0.7-0.3-1.6-0.2-2.7,0.3L56.6,22l2.2,5.5L61,26.6z"/>
	<path class="st3" d="M76.3,17.2c0,0.1-0.1,0.2-0.2,0.3s-0.1,0.1-0.2,0.1c-0.1,0-0.3,0-0.4-0.1c-0.2-0.1-0.4-0.2-0.6-0.3
		c-0.3-0.1-0.5-0.2-0.9-0.2c-0.3-0.1-0.7,0-1.2,0c-0.4,0.1-0.8,0.2-1.1,0.4s-0.5,0.4-0.7,0.6s-0.3,0.5-0.4,0.8s-0.1,0.6,0,0.9
		c0.1,0.4,0.2,0.7,0.5,0.9c0.2,0.2,0.5,0.4,0.9,0.5c0.4,0.1,0.7,0.2,1.2,0.3c0.4,0.1,0.9,0.1,1.3,0.2c0.4,0.1,0.9,0.2,1.3,0.3
		c0.4,0.1,0.8,0.3,1.2,0.5c0.4,0.2,0.7,0.5,0.9,0.9c0.3,0.4,0.4,0.8,0.6,1.4c0.1,0.6,0.1,1.2,0,1.8c-0.1,0.6-0.3,1.1-0.7,1.6
		c-0.3,0.5-0.8,0.9-1.3,1.2c-0.5,0.3-1.2,0.6-1.9,0.7c-0.9,0.2-1.8,0.1-2.6-0.1c-0.8-0.2-1.5-0.5-2.2-1l0.4-1c0-0.1,0.1-0.2,0.2-0.2
		c0.1-0.1,0.1-0.1,0.2-0.1c0.1,0,0.2,0,0.3,0.1c0.1,0,0.3,0.1,0.4,0.2c0.2,0.1,0.3,0.2,0.5,0.3c0.2,0.1,0.4,0.2,0.7,0.2
		c0.2,0.1,0.5,0.1,0.8,0.1c0.3,0,0.6,0,1-0.1c0.5-0.1,0.8-0.2,1.2-0.4s0.6-0.4,0.8-0.7s0.3-0.6,0.4-0.9s0.1-0.7,0-1.1
		c-0.1-0.4-0.2-0.8-0.5-1c-0.2-0.2-0.5-0.4-0.9-0.5c-0.3-0.1-0.7-0.2-1.2-0.3c-0.4-0.1-0.9-0.1-1.3-0.2s-0.9-0.1-1.3-0.2
		c-0.4-0.1-0.8-0.3-1.2-0.5c-0.4-0.2-0.7-0.5-1-0.9s-0.5-0.9-0.6-1.5c-0.1-0.5-0.1-1,0-1.5c0.1-0.5,0.3-1,0.6-1.4
		c0.3-0.4,0.7-0.8,1.2-1.1c0.5-0.3,1.1-0.5,1.8-0.7c0.8-0.1,1.5-0.1,2.2,0c0.7,0.1,1.3,0.4,1.9,0.8L76.3,17.2z"/>
	<path class="st3" d="M92.3,16.5l-4.6-0.2L87.3,29L85.4,29l0.4-12.7l-4.6-0.2l0.1-1.6l11.2,0.4L92.3,16.5z"/>
	<path class="st3" d="M108.3,26.1c-0.3,1-0.7,1.9-1.3,2.7c-0.6,0.8-1.2,1.4-2,1.8s-1.6,0.7-2.6,0.8c-0.9,0.1-1.9,0-2.9-0.3
		s-1.9-0.7-2.6-1.3c-0.7-0.6-1.3-1.3-1.7-2.1c-0.4-0.8-0.7-1.7-0.8-2.6s0-1.9,0.3-3c0.3-1,0.7-1.9,1.3-2.7c0.6-0.8,1.2-1.4,2-1.8
		c0.8-0.5,1.6-0.7,2.6-0.9s1.9,0,2.9,0.3s1.9,0.7,2.6,1.3s1.3,1.3,1.7,2.1s0.7,1.7,0.8,2.6C108.7,24,108.6,25,108.3,26.1z
		 M106.4,25.5c0.2-0.8,0.3-1.6,0.3-2.4s-0.2-1.4-0.5-2c-0.3-0.6-0.7-1.1-1.2-1.5c-0.5-0.4-1.2-0.7-1.9-0.9c-0.7-0.2-1.4-0.3-2.1-0.2
		s-1.3,0.3-1.8,0.6c-0.6,0.3-1,0.8-1.5,1.4c-0.4,0.6-0.8,1.3-1,2.2s-0.3,1.6-0.3,2.4s0.2,1.4,0.5,2c0.3,0.6,0.7,1.1,1.2,1.5
		c0.5,0.4,1.2,0.7,1.9,0.9c0.7,0.2,1.5,0.3,2.1,0.2c0.7-0.1,1.3-0.3,1.8-0.6s1-0.8,1.5-1.4S106.2,26.4,106.4,25.5z"/>
	<path class="st3" d="M118.1,39.8l-1.5-0.9c-0.3-0.2-0.5-0.4-0.5-0.8l-0.6-6.3c0-0.2-0.1-0.4-0.1-0.5c-0.1-0.1-0.2-0.3-0.5-0.4
		l-1.3-0.8l-3.1,5.1l-1.7-1l7.3-12.3l3.5,2.1c0.8,0.5,1.4,0.9,1.9,1.4c0.5,0.5,0.8,1,1,1.5c0.2,0.5,0.3,1,0.2,1.6s-0.3,1.1-0.6,1.6
		c-0.3,0.4-0.6,0.8-0.9,1.1c-0.4,0.3-0.8,0.5-1.2,0.7c-0.4,0.1-0.9,0.2-1.4,0.2s-1-0.1-1.6-0.3c0.1,0.2,0.2,0.5,0.2,0.9L118.1,39.8z
		 M116.1,30.1c0.5,0.3,0.9,0.5,1.4,0.6c0.4,0.1,0.8,0.1,1.2,0.1c0.4-0.1,0.7-0.2,1-0.4c0.3-0.2,0.6-0.5,0.8-0.9
		c0.4-0.7,0.5-1.4,0.3-2.1c-0.3-0.7-0.9-1.3-1.8-1.8l-1.8-1.1l-2.8,4.7L116.1,30.1z"/>
	<path class="st3" d="M127.2,46.3l-1.1,1.1l-6.4-6.1l9.8-10.4l6.4,6.1l-1.1,1.1l-5-4.7l-3.3,3.5l4.1,3.8l-1,1.1l-4.1-3.8l-3.4,3.6
		L127.2,46.3z"/>
	<path class="st3" d="M118.3,132.4c-0.1,0.1-0.2,0.1-0.3,0.1l-1.1-0.1c0-0.9,0.2-1.8,0.6-2.6s1-1.6,1.9-2.4c0.8-0.7,1.6-1.1,2.5-1.4
		c0.9-0.3,1.7-0.4,2.6-0.2c0.9,0.1,1.7,0.4,2.6,0.9c0.8,0.5,1.6,1.1,2.3,1.9c0.7,0.8,1.2,1.7,1.5,2.6c0.3,0.9,0.5,1.8,0.4,2.7
		c-0.1,0.9-0.3,1.8-0.7,2.6c-0.4,0.8-1,1.6-1.8,2.3c-0.8,0.7-1.6,1.1-2.4,1.4s-1.6,0.4-2.4,0.3l-0.1-1.1c0-0.1,0-0.2,0-0.2
		c0-0.1,0.1-0.1,0.2-0.2c0.1-0.1,0.2-0.1,0.5-0.1s0.5,0,0.8-0.1s0.7-0.2,1.1-0.3c0.4-0.2,0.8-0.5,1.3-0.9c0.6-0.5,1-1,1.3-1.6
		c0.3-0.6,0.5-1.2,0.5-1.9c0-0.7-0.1-1.3-0.4-2s-0.7-1.4-1.3-2c-0.6-0.7-1.2-1.2-1.8-1.6c-0.6-0.4-1.3-0.6-1.9-0.7s-1.3,0-1.9,0.2
		c-0.6,0.2-1.2,0.5-1.7,1c-0.3,0.3-0.6,0.5-0.8,0.8c-0.2,0.3-0.4,0.5-0.6,0.8c-0.2,0.3-0.3,0.5-0.4,0.8c-0.1,0.3-0.1,0.6-0.2,0.9
		C118.5,132.3,118.4,132.4,118.3,132.4z"/>
	<path class="st3" d="M118,139.4c-0.2,0.7-0.6,1.4-1,1.9c-0.4,0.5-1,1-1.7,1.4c-0.5,0.3-1,0.4-1.5,0.5c-0.5,0-0.9,0-1.3-0.2
		c-0.4-0.2-0.8-0.4-1.2-0.7c-0.4-0.3-0.7-0.8-0.9-1.3l-3-5.7l0.7-0.4c0.2-0.1,0.3-0.1,0.4-0.1c0.1,0,0.2,0.1,0.4,0.2l0.6,0.8
		c0.1-0.3,0.2-0.7,0.4-0.9c0.1-0.3,0.3-0.6,0.5-0.8c0.2-0.2,0.4-0.5,0.6-0.7c0.2-0.2,0.5-0.4,0.9-0.6c0.3-0.2,0.7-0.3,1.1-0.4
		c0.4-0.1,0.7-0.1,1,0c0.3,0.1,0.6,0.2,0.9,0.5c0.3,0.2,0.5,0.5,0.8,0.9c0.2,0.4,0.3,0.7,0.3,1.2c0,0.4-0.2,0.9-0.5,1.4
		c-0.3,0.5-0.8,1-1.4,1.5c-0.6,0.5-1.4,1.1-2.4,1.7l0.4,0.7c0.4,0.7,0.8,1.1,1.3,1.3c0.5,0.2,1,0.1,1.6-0.2c0.4-0.2,0.7-0.4,0.9-0.7
		c0.2-0.2,0.4-0.5,0.5-0.7c0.1-0.2,0.2-0.4,0.3-0.6s0.2-0.3,0.3-0.4c0.1-0.1,0.2-0.1,0.3-0.1c0.1,0,0.2,0,0.3,0.1L118,139.4z
		 M111,138.4c0.7-0.4,1.3-0.8,1.8-1.2c0.5-0.4,0.8-0.7,1.1-1s0.4-0.6,0.4-0.9c0-0.3,0-0.5-0.1-0.8c-0.1-0.2-0.3-0.4-0.4-0.5
		c-0.2-0.1-0.3-0.2-0.5-0.3s-0.4,0-0.6,0s-0.4,0.1-0.6,0.2c-0.3,0.1-0.5,0.3-0.7,0.5c-0.2,0.2-0.4,0.4-0.5,0.6s-0.3,0.4-0.4,0.7
		c-0.1,0.2-0.2,0.5-0.3,0.8L111,138.4z"/>
	<path class="st3" d="M107.2,151l-2.6-8.3l-0.4,0.1c-0.1,0-0.2,0.1-0.3,0.2s-0.1,0.2-0.2,0.3l-2,4.2c-0.1,0.1-0.1,0.2-0.2,0.3
		c-0.1,0.1-0.2,0.2-0.4,0.2l-1.5,0.5l2.4-4.9c0.1-0.3,0.2-0.5,0.4-0.7c-0.1,0-0.3-0.1-0.4-0.2c-0.1-0.1-0.2-0.2-0.4-0.3l-5.3-3.6
		l1.5-0.5c0.1,0,0.3-0.1,0.4,0c0.1,0,0.2,0.1,0.4,0.2l4.4,3c0.1,0.1,0.3,0.2,0.4,0.2s0.3,0,0.4-0.1l0.5-0.2l-1.4-4.6l1.7-0.5
		l4.4,14.1L107.2,151z"/>
	<path class="st3" d="M86.9,141.5c0.2-0.3,0.4-0.6,0.7-0.8c0.3-0.2,0.6-0.4,0.9-0.6c0.3-0.2,0.7-0.3,1-0.4s0.7-0.2,1.1-0.2
		c0.7-0.1,1.4,0,2,0.1c0.6,0.2,1.2,0.5,1.6,0.9c0.5,0.4,0.9,0.9,1.2,1.6c0.3,0.6,0.5,1.4,0.6,2.3c0.1,0.7,0.1,1.4-0.1,2
		c-0.1,0.6-0.4,1.2-0.7,1.7c-0.4,0.5-0.8,0.9-1.4,1.2c-0.6,0.3-1.2,0.5-1.9,0.6c-0.6,0.1-1.2,0-1.7-0.1c-0.5-0.1-1-0.4-1.4-0.7
		c-0.4-0.3-0.8-0.8-1-1.3c-0.3-0.5-0.5-1.2-0.5-1.9c0-0.3,0-0.5,0-0.6c0-0.1,0.2-0.2,0.3-0.2l6.7-0.8c-0.1-0.6-0.2-1.2-0.5-1.6
		c-0.2-0.5-0.5-0.8-0.8-1.1c-0.3-0.3-0.7-0.5-1.1-0.6s-0.8-0.1-1.3-0.1c-0.4,0.1-0.8,0.1-1.1,0.3s-0.6,0.3-0.8,0.4
		c-0.2,0.1-0.4,0.3-0.5,0.4s-0.3,0.2-0.4,0.2c-0.1,0-0.3,0-0.4-0.1L86.9,141.5z M88.9,146.1c0,0.4,0.2,0.8,0.3,1.1
		c0.2,0.3,0.4,0.6,0.6,0.8c0.3,0.2,0.5,0.4,0.9,0.5c0.3,0.1,0.7,0.1,1.1,0.1c0.8-0.1,1.5-0.4,1.9-1c0.4-0.6,0.7-1.3,0.7-2.2
		L88.9,146.1z"/>
	<path class="st3" d="M78.5,154.1c-0.9-0.1-1.7-0.2-2.3-0.5c-0.6-0.3-1.2-0.6-1.6-1c-0.4-0.4-0.7-0.9-0.9-1.5
		c-0.2-0.6-0.2-1.2-0.2-1.9c0.1-0.7,0.2-1.3,0.5-1.8c0.3-0.5,0.7-1,1.1-1.3c0.5-0.4,1.1-0.6,1.7-0.8c0.7-0.2,1.5-0.2,2.3-0.1
		l2.3,0.2L82,140l1.9,0.2l-1.2,14.3L78.5,154.1z M79.1,146.7c-0.6,0-1,0-1.5,0.1s-0.8,0.3-1.1,0.5c-0.3,0.2-0.6,0.5-0.7,0.9
		c-0.2,0.4-0.3,0.7-0.3,1.2c-0.1,0.9,0.1,1.6,0.7,2.2c0.5,0.6,1.3,0.9,2.5,1l2.3,0.2l0.5-5.9L79.1,146.7z"/>
	<path class="st3" d="M56.1,148.6l4.7-13.5l1.8,0.6l-2.1,6.2l7.3,2.5l2.1-6.2l1.8,0.6l-4.7,13.5l-1.8-0.6l2.1-6l-7.3-2.5l-2.1,6
		L56.1,148.6z"/>
	<path class="st3" d="M46,142.8c-0.8-0.5-1.4-1-1.8-1.6c-0.4-0.5-0.7-1.1-0.9-1.7c-0.2-0.6-0.2-1.1-0.1-1.7s0.4-1.1,0.7-1.7
		c0.4-0.6,0.8-1,1.3-1.3c0.5-0.3,1-0.5,1.6-0.6c0.6-0.1,1.2,0,1.9,0.1c0.7,0.2,1.4,0.5,2.1,1l1.9,1.3l3-4.5l1.6,1.1l-7.9,12
		L46,142.8z M50.1,136.6c-0.5-0.3-0.9-0.5-1.3-0.6c-0.4-0.1-0.8-0.1-1.2-0.1c-0.4,0.1-0.7,0.2-1.1,0.4s-0.6,0.5-0.8,0.9
		c-0.5,0.8-0.7,1.5-0.5,2.3c0.2,0.7,0.8,1.4,1.7,2.1l1.9,1.3l3.2-4.9L50.1,136.6z"/>
</g>
<circle class="st3" cx="97.7" cy="83.7" r="3"/>
<circle class="st3" cx="117.7" cy="83.7" r="3"/>
<g>
</g>
<g>
</g>
<g>
</g>
<g>
</g>
<g>
</g>
<g>
</g>
<g>
</g>
<g>
</g>
<g>
</g>
<g>
</g>
<g>
</g>
<g>
</g>
<g>
</g>
<g>
</g>
<g>
</g>
</svg>
